<svg width="112" height="110" viewBox="0 0 112 110" fill="none" xmlns="http://www.w3.org/2000/svg">
<path d="M104.118 88.2476C103.318 80.591 96.937 74.5787 89.2916 74.5787C84.5116 74.5787 80 76.9761 77.2111 80.921C76.6686 80.8259 76.1186 80.7793 75.5649 80.7793C71.2398 80.7793 67.3975 83.7192 66.1205 87.8878C62.5653 89.9963 60.3114 93.9299 60.3114 98.145C60.3114 104.683 65.5034 110 71.8848 110H91.9706C92.0824 110 92.1906 109.993 92.2894 109.985C92.405 109.993 92.5205 110 92.6399 110H100.675C106.687 110 111.579 104.991 111.579 98.8348C111.577 93.9877 108.516 89.7502 104.118 88.2476ZM100.673 106.271L92.5597 106.266L92.2428 106.255L71.8811 106.271C67.556 106.271 64.0362 102.625 64.0362 98.145C64.0362 95.041 65.8054 92.1607 68.5422 90.8091L69.3531 90.4101L69.5433 89.5246C70.1604 86.6163 72.692 84.5078 75.563 84.5078C76.2062 84.5078 76.8457 84.6141 77.4646 84.821L78.9132 85.3076L79.6738 83.9821C81.717 80.4288 85.3114 78.3072 89.2897 78.3072C95.3766 78.3072 100.392 83.4284 100.472 89.7222L100.492 91.2379L101.982 91.5268C105.38 92.1868 107.847 95.2591 107.847 98.833C107.849 102.934 104.629 106.271 100.673 106.271Z" fill="#FA58B6"/>
<path d="M19.575 11.1857C14.9497 11.1857 11.1857 14.9497 11.1857 19.5749C11.1857 24.2002 14.9497 27.9642 19.575 27.9642C24.2002 27.9642 27.9642 24.2002 27.9642 19.5749C27.9642 14.9497 24.2002 11.1857 19.575 11.1857ZM19.575 24.2356C17.0041 24.2356 14.9142 22.1458 14.9142 19.5749C14.9142 17.0041 17.0041 14.9142 19.575 14.9142C22.1458 14.9142 24.2357 17.0041 24.2357 19.5749C24.2357 22.1458 22.1458 24.2356 19.575 24.2356Z" fill="#FA58B6"/>
<path d="M93.2141 18.6428C94.2437 18.6428 95.0783 17.8081 95.0783 16.7785C95.0783 15.7489 94.2437 14.9142 93.2141 14.9142C92.1844 14.9142 91.3498 15.7489 91.3498 16.7785C91.3498 17.8081 92.1844 18.6428 93.2141 18.6428Z" fill="#FA58B6"/>
<path d="M85.7569 18.6428C86.7865 18.6428 87.6212 17.8081 87.6212 16.7785C87.6212 15.7489 86.7865 14.9142 85.7569 14.9142C84.7273 14.9142 83.8926 15.7489 83.8926 16.7785C83.8926 17.8081 84.7273 18.6428 85.7569 18.6428Z" fill="#FA58B6"/>
<path d="M96.9426 24.2356C97.9722 24.2356 98.8069 23.401 98.8069 22.3714C98.8069 21.3418 97.9722 20.5071 96.9426 20.5071C95.913 20.5071 95.0783 21.3418 95.0783 22.3714C95.0783 23.401 95.913 24.2356 96.9426 24.2356Z" fill="#FA58B6"/>
<path d="M89.4855 24.2356C90.5151 24.2356 91.3498 23.401 91.3498 22.3714C91.3498 21.3418 90.5151 20.5071 89.4855 20.5071C88.4559 20.5071 87.6212 21.3418 87.6212 22.3714C87.6212 23.401 88.4559 24.2356 89.4855 24.2356Z" fill="#FA58B6"/>
<path d="M78.2998 18.6428C79.3294 18.6428 80.1641 17.8081 80.1641 16.7785C80.1641 15.7489 79.3294 14.9142 78.2998 14.9142C77.2702 14.9142 76.4355 15.7489 76.4355 16.7785C76.4355 17.8081 77.2702 18.6428 78.2998 18.6428Z" fill="#FA58B6"/>
<path d="M82.0284 24.2356C83.058 24.2356 83.8926 23.401 83.8926 22.3714C83.8926 21.3418 83.058 20.5071 82.0284 20.5071C80.9988 20.5071 80.1641 21.3418 80.1641 22.3714C80.1641 23.401 80.9988 24.2356 82.0284 24.2356Z" fill="#FA58B6"/>
<path d="M70.8427 18.6428C71.8723 18.6428 72.707 17.8081 72.707 16.7785C72.707 15.7489 71.8723 14.9142 70.8427 14.9142C69.8131 14.9142 68.9784 15.7489 68.9784 16.7785C68.9784 17.8081 69.8131 18.6428 70.8427 18.6428Z" fill="#FA58B6"/>
<path d="M74.5712 24.2356C75.6009 24.2356 76.4355 23.401 76.4355 22.3714C76.4355 21.3418 75.6009 20.5071 74.5712 20.5071C73.5416 20.5071 72.707 21.3418 72.707 22.3714C72.707 23.401 73.5416 24.2356 74.5712 24.2356Z" fill="#FA58B6"/>
<path d="M63.3856 18.6428C64.4152 18.6428 65.2498 17.8081 65.2498 16.7785C65.2498 15.7489 64.4152 14.9142 63.3856 14.9142C62.3559 14.9142 61.5213 15.7489 61.5213 16.7785C61.5213 17.8081 62.3559 18.6428 63.3856 18.6428Z" fill="#FA58B6"/>
<path d="M67.1141 24.2356C68.1437 24.2356 68.9784 23.401 68.9784 22.3714C68.9784 21.3418 68.1437 20.5071 67.1141 20.5071C66.0845 20.5071 65.2498 21.3418 65.2498 22.3714C65.2498 23.401 66.0845 24.2356 67.1141 24.2356Z" fill="#FA58B6"/>
<path d="M111.857 30.5593V8.5906C111.857 3.85347 108.003 0 103.266 0H8.59061C3.85347 0 0 3.85347 0 8.5906V30.5593C0 33.2979 1.31059 35.7122 3.31283 37.2856C1.31059 38.8609 0 41.2752 0 44.0119V65.9806C0 68.7192 1.31059 71.1335 3.31283 72.7069C1.31059 74.2823 0 76.6965 0 79.4333V101.402C0 106.139 3.85347 109.993 8.59061 109.993H52.1999V106.264H8.59061C5.90977 106.264 3.72856 104.083 3.72856 101.402V79.4333C3.72856 76.7524 5.90977 74.5712 8.59061 74.5712H70.8427V70.8427H8.59061C5.90977 70.8427 3.72856 68.6614 3.72856 65.9806V44.0119C3.72856 41.3311 5.90977 39.1499 8.59061 39.1499H103.264C105.945 39.1499 108.126 41.3311 108.126 44.0119V70.8427H111.855V44.0119C111.855 41.2733 110.544 38.8591 108.542 37.2856C110.546 35.7103 111.857 33.296 111.857 30.5593ZM8.59061 35.4213C5.90977 35.4213 3.72856 33.2401 3.72856 30.5593V8.5906C3.72856 5.90977 5.90977 3.72856 8.59061 3.72856H103.264C105.947 3.72856 108.128 5.90977 108.128 8.5906V30.5593C108.128 33.2401 105.947 35.4213 103.266 35.4213H8.59061Z" fill="#FA58B6"/>
<path d="M11.1857 54.9963C11.1857 59.6216 14.9497 63.3855 19.575 63.3855C24.2002 63.3855 27.9642 59.6216 27.9642 54.9963C27.9642 50.371 24.2002 46.607 19.575 46.607C14.9497 46.607 11.1857 50.371 11.1857 54.9963ZM24.2357 54.9963C24.2357 57.5671 22.1458 59.657 19.575 59.657C17.0041 59.657 14.9142 57.5671 14.9142 54.9963C14.9142 52.4254 17.0041 50.3356 19.575 50.3356C22.1458 50.3356 24.2357 52.4254 24.2357 54.9963Z" fill="#FA58B6"/>
<path d="M93.2141 54.0641C94.2437 54.0641 95.0783 53.2295 95.0783 52.1999C95.0783 51.1702 94.2437 50.3356 93.2141 50.3356C92.1844 50.3356 91.3498 51.1702 91.3498 52.1999C91.3498 53.2295 92.1844 54.0641 93.2141 54.0641Z" fill="#FA58B6"/>
<path d="M85.7569 54.0641C86.7865 54.0641 87.6212 53.2295 87.6212 52.1999C87.6212 51.1702 86.7865 50.3356 85.7569 50.3356C84.7273 50.3356 83.8926 51.1702 83.8926 52.1999C83.8926 53.2295 84.7273 54.0641 85.7569 54.0641Z" fill="#FA58B6"/>
<path d="M96.9426 59.657C97.9722 59.657 98.8069 58.8223 98.8069 57.7927C98.8069 56.7631 97.9722 55.9284 96.9426 55.9284C95.913 55.9284 95.0783 56.7631 95.0783 57.7927C95.0783 58.8223 95.913 59.657 96.9426 59.657Z" fill="#FA58B6"/>
<path d="M89.4855 59.657C90.5151 59.657 91.3498 58.8223 91.3498 57.7927C91.3498 56.7631 90.5151 55.9284 89.4855 55.9284C88.4559 55.9284 87.6212 56.7631 87.6212 57.7927C87.6212 58.8223 88.4559 59.657 89.4855 59.657Z" fill="#FA58B6"/>
<path d="M78.2998 54.0641C79.3294 54.0641 80.1641 53.2295 80.1641 52.1999C80.1641 51.1702 79.3294 50.3356 78.2998 50.3356C77.2702 50.3356 76.4355 51.1702 76.4355 52.1999C76.4355 53.2295 77.2702 54.0641 78.2998 54.0641Z" fill="#FA58B6"/>
<path d="M82.0284 59.657C83.058 59.657 83.8926 58.8223 83.8926 57.7927C83.8926 56.7631 83.058 55.9284 82.0284 55.9284C80.9988 55.9284 80.1641 56.7631 80.1641 57.7927C80.1641 58.8223 80.9988 59.657 82.0284 59.657Z" fill="#FA58B6"/>
<path d="M70.8427 54.0641C71.8723 54.0641 72.707 53.2295 72.707 52.1999C72.707 51.1702 71.8723 50.3356 70.8427 50.3356C69.8131 50.3356 68.9784 51.1702 68.9784 52.1999C68.9784 53.2295 69.8131 54.0641 70.8427 54.0641Z" fill="#FA58B6"/>
<path d="M74.5712 59.657C75.6009 59.657 76.4355 58.8223 76.4355 57.7927C76.4355 56.7631 75.6009 55.9284 74.5712 55.9284C73.5416 55.9284 72.707 56.7631 72.707 57.7927C72.707 58.8223 73.5416 59.657 74.5712 59.657Z" fill="#FA58B6"/>
<path d="M63.3856 54.0641C64.4152 54.0641 65.2498 53.2295 65.2498 52.1999C65.2498 51.1702 64.4152 50.3356 63.3856 50.3356C62.3559 50.3356 61.5213 51.1702 61.5213 52.1999C61.5213 53.2295 62.3559 54.0641 63.3856 54.0641Z" fill="#FA58B6"/>
<path d="M67.1141 59.657C68.1437 59.657 68.9784 58.8223 68.9784 57.7927C68.9784 56.7631 68.1437 55.9284 67.1141 55.9284C66.0845 55.9284 65.2498 56.7631 65.2498 57.7927C65.2498 58.8223 66.0845 59.657 67.1141 59.657Z" fill="#FA58B6"/>
<path d="M11.1857 90.4176C11.1857 95.0429 14.9497 98.8069 19.575 98.8069C24.2002 98.8069 27.9642 95.0429 27.9642 90.4176C27.9642 85.7923 24.2002 82.0283 19.575 82.0283C14.9497 82.0283 11.1857 85.7923 11.1857 90.4176ZM24.2357 90.4176C24.2357 92.9884 22.1458 95.0783 19.575 95.0783C17.0041 95.0783 14.9142 92.9884 14.9142 90.4176C14.9142 87.8468 17.0041 85.7569 19.575 85.7569C22.1458 85.7569 24.2357 87.8468 24.2357 90.4176Z" fill="#FA58B6"/>
</svg>
