<svg width="120" height="110" viewBox="0 0 120 110" fill="none" xmlns="http://www.w3.org/2000/svg">
<path d="M80.2134 95.3773C79.5964 95.0019 79.0588 94.4986 78.6315 93.8887C78.4342 93.6074 78.2674 93.31 78.1293 93.0026H8.01921V23.8983H103.184V69.021C105.215 69.2045 106.92 70.5388 107.636 72.366C108.269 72.0186 108.976 71.804 109.718 71.7385C110.22 71.6948 110.719 71.726 111.203 71.8216V6.68286C111.203 2.99792 108.205 0 104.521 0H6.68258C2.99792 0 0 2.99792 0 6.68286V94.3396C0 98.0245 2.99792 101.022 6.68258 101.022H79.6043C79.0353 99.8698 78.9003 98.5689 79.2352 97.3173C79.4283 96.5974 79.7623 95.9407 80.2134 95.3773ZM95.8452 11.2218C95.8452 9.85913 96.9499 8.75416 98.3126 8.75416H100.78C102.143 8.75416 103.247 9.85885 103.247 11.2218V14.0184C103.247 15.3812 102.143 16.4859 100.78 16.4859H98.3126C96.9496 16.4859 95.8452 15.3812 95.8452 14.0184V11.2218ZM84.3716 11.2218C84.3716 9.85913 85.4763 8.75416 86.839 8.75416H89.3067C90.6697 8.75416 91.7741 9.85885 91.7741 11.2218V14.0184C91.7741 15.3812 90.6694 16.4859 89.3067 16.4859H86.839C85.4763 16.4859 84.3716 15.3812 84.3716 14.0184V11.2218ZM72.8977 11.2218C72.8977 9.85913 74.0026 8.75416 75.3651 8.75416H77.8325C79.1955 8.75416 80.3002 9.85885 80.3002 11.2218V14.0184C80.3002 15.3812 79.1955 16.4859 77.8325 16.4859H75.3651C74.0026 16.4859 72.8977 15.3812 72.8977 14.0184V11.2218Z" fill="#FA58B6"/>
<path d="M119.053 90.6713L118.312 86.4664C118.212 85.9001 117.672 85.5219 117.105 85.6217L113.366 86.2806C112.917 85.2273 112.344 84.2405 111.663 83.3375L114.106 80.426C114.283 80.2151 114.37 79.9414 114.346 79.6661C114.322 79.3908 114.189 79.1367 113.977 78.959L110.707 76.2142C110.495 76.0367 110.221 75.9505 109.946 75.9746C109.671 75.9987 109.417 76.1312 109.239 76.3427L106.799 79.2519C105.797 78.7415 104.726 78.3479 103.603 78.0882V74.291C103.603 73.7159 103.137 73.2492 102.562 73.2492H98.2917C97.7169 73.2492 97.2502 73.7159 97.2502 74.291V78.0882C96.1271 78.3476 95.0567 78.7415 94.0544 79.2519L91.6136 76.343C91.2439 75.9023 90.5872 75.8451 90.1463 76.2145L86.8756 78.959C86.664 79.1367 86.5316 79.3908 86.5072 79.6661C86.4834 79.9414 86.5696 80.2153 86.7471 80.4269L89.1899 83.3377C88.5105 84.2405 87.936 85.2278 87.4872 86.2809L83.7478 85.6217C83.1824 85.5222 82.6417 85.9001 82.5413 86.4664L81.8001 90.6713C81.7522 90.9432 81.8143 91.2228 81.9722 91.4494C82.1313 91.6759 82.372 91.8299 82.6442 91.8778L86.3864 92.5373C86.4474 93.6968 86.6493 94.8185 86.9742 95.8866L83.6851 97.7849C83.4458 97.9224 83.2714 98.1504 83.1997 98.4169C83.1282 98.6837 83.166 98.9678 83.3038 99.2072L85.4386 102.905C85.5761 103.144 85.8041 103.319 86.0706 103.39C86.1593 103.414 86.2498 103.425 86.3402 103.425C86.5214 103.425 86.7009 103.378 86.8608 103.286L90.1525 101.385C90.9266 102.215 91.8005 102.95 92.7554 103.571L91.4557 107.142C91.3615 107.402 91.3737 107.688 91.4905 107.938C91.6074 108.189 91.8186 108.382 92.0781 108.477L96.0896 109.936C96.2048 109.978 96.3256 110 96.4461 110C96.5963 110 96.7475 109.967 96.8867 109.902C97.1371 109.786 97.3301 109.574 97.4246 109.314L98.7241 105.744C99.2812 105.811 99.8483 105.846 100.424 105.846C100.999 105.846 101.566 105.811 102.123 105.744L103.423 109.314C103.517 109.574 103.711 109.786 103.961 109.902C104.1 109.967 104.25 110 104.401 110C104.522 110 104.642 109.979 104.758 109.936L108.77 108.477C109.029 108.382 109.24 108.188 109.357 107.938C109.474 107.688 109.486 107.402 109.392 107.142L108.092 103.572C109.046 102.95 109.92 102.215 110.695 101.386L113.986 103.287C114.146 103.378 114.326 103.426 114.507 103.426C114.597 103.426 114.688 103.414 114.777 103.391C115.043 103.319 115.271 103.144 115.409 102.905L117.543 99.2072C117.681 98.9684 117.719 98.6837 117.648 98.4169C117.576 98.151 117.401 97.923 117.162 97.7849L113.874 95.8871C114.199 94.8187 114.4 93.697 114.461 92.5379L118.203 91.8781C118.475 91.8302 118.717 91.6762 118.875 91.4497C119.039 91.2228 119.101 90.9432 119.053 90.6713ZM100.427 97.3533C97.2641 97.3533 94.6994 94.7887 94.6994 91.6255C94.6994 88.4622 97.2644 85.8979 100.427 85.8979C103.59 85.8979 106.155 88.4622 106.155 91.6255C106.155 94.7887 103.59 97.3533 100.427 97.3533Z" fill="#FA58B6"/>
<path d="M46.6984 62.2043C46.6984 60.8569 45.9087 59.6192 44.6864 59.0516L33.4991 53.8536L44.6867 48.6551C45.9087 48.0869 46.6984 46.8495 46.6984 45.5027V45.4122C46.6984 44.2185 46.0976 43.1226 45.0921 42.4821C44.5358 42.1268 43.8879 41.9388 43.219 41.9388C42.7149 41.9388 42.2088 42.0497 41.7559 42.2601L23.8705 50.5773C22.6487 51.1455 21.8596 52.3829 21.8596 53.7294V53.9781C21.8596 55.323 22.6484 56.5595 23.8708 57.1306L41.7579 65.4486C42.2204 65.6627 42.7129 65.7713 43.2216 65.7713C43.8845 65.7713 44.5304 65.583 45.0921 65.2258C46.0981 64.5827 46.6987 63.4876 46.6987 62.2953L46.6984 62.2043Z" fill="#FA58B6"/>
<path d="M64.3454 33.4639C63.6929 32.5708 62.6435 32.0377 61.538 32.0377H61.449C59.9309 32.0377 58.5999 33.0088 58.1375 34.4524L46.3533 70.965C46.0179 72.0192 46.2067 73.1803 46.8583 74.0732C47.5108 74.9658 48.5602 75.4991 49.6657 75.4991H49.755C51.2726 75.4991 52.6027 74.5277 53.0646 73.0845L64.8473 36.5747C65.1858 35.5213 64.9981 34.3585 64.3454 33.4639Z" fill="#FA58B6"/>
<path d="M87.3321 50.577L69.4464 42.2598C68.995 42.05 68.4897 41.9391 67.9855 41.9391C67.3169 41.9391 66.6687 42.1265 66.1127 42.4812C65.1056 43.1229 64.5047 44.2185 64.5047 45.4122V45.5027C64.5047 46.8484 65.2938 48.0861 66.5171 48.6565L77.704 53.8539L66.5168 59.0516C65.2944 59.6192 64.5047 60.8569 64.5047 62.2043V62.2953C64.5047 63.4876 65.1056 64.5824 66.1121 65.226C66.6719 65.5827 67.3183 65.7713 67.9821 65.7713C68.4902 65.7713 68.9822 65.6627 69.4478 65.4478L87.3343 57.1297C88.5556 56.5601 89.3441 55.3232 89.3441 53.9784V53.7297C89.3433 52.3829 88.5542 51.1455 87.3321 50.577Z" fill="#FA58B6"/>
</svg>
