<svg width="135" height="120" viewBox="0 0 135 120" fill="none" xmlns="http://www.w3.org/2000/svg">
<path d="M131.973 105.99H107.48V42.8909C107.48 39.7654 104.801 37.2228 101.509 37.2228H57.1473V35.2542H60.1091C61.352 35.2542 62.3589 34.2979 62.3589 33.1186V2.13556C62.3589 0.95605 61.352 0 60.1091 0H49.1039C47.8611 0 46.8541 0.956299 46.8541 2.13556V33.1186C46.8541 34.2981 47.8611 35.2542 49.1039 35.2542H52.6477V37.2228H5.9708C2.67868 37.223 0 39.7654 0 42.8909V110.655C0 115.808 4.41676 120 9.8449 120H125.156C130.155 120 134.222 116.14 134.222 111.395V108.126C134.222 106.946 133.215 105.99 131.973 105.99ZM51.354 4.27137H57.8596V30.9833H51.354V4.27137ZM57.1473 50.8023V48.7426H95.3436V98.7417H12.1361V48.7426H52.6474V50.8023C52.6474 51.6001 51.9635 52.2493 51.1225 52.2493H25.3376C22.0156 52.2493 19.3131 54.8146 19.3131 57.968V66.3918C19.3131 69.5451 22.0156 72.1101 25.3376 72.1101H27.8624V86.0122C27.8624 88.3142 29.0914 90.4027 31.1496 91.5994C33.2596 92.8265 35.85 92.9138 38.0796 91.8341C38.4246 91.6669 38.9984 91.4447 39.9894 91.4447C41.6315 91.4447 42.3236 92.0033 43.4705 92.929C44.7784 93.9848 46.5699 95.4311 49.8665 95.4311C53.1628 95.4311 54.9544 93.9848 56.2623 92.929C57.4092 92.0033 58.1015 91.4447 59.7434 91.4447C61.3858 91.4447 62.0781 92.0033 63.2251 92.9292C64.5332 93.9851 66.3248 95.4311 69.6216 95.4311C72.9184 95.4311 74.71 93.9851 76.0182 92.9292C76.4774 92.5585 76.9116 92.2083 77.3591 91.9553C80.0671 90.4254 81.7496 87.5923 81.7496 84.5622V81.2931H84.0531C87.8046 81.2931 90.8563 78.3964 90.8563 74.8355V65.1137C90.8563 61.5533 87.8046 58.656 84.0531 58.656H34.6653C30.9139 58.656 27.8622 61.5528 27.8622 65.1137V67.839H25.3374C24.4964 67.839 23.8124 67.1898 23.8124 66.3915V57.9677C23.8124 57.1697 24.4964 56.5202 25.3374 56.5202H51.1222C54.4445 56.5207 57.1473 53.9551 57.1473 50.8023ZM33.1121 67.839H32.362V65.1137C32.362 63.9083 33.3952 62.9274 34.6653 62.9274C35.9354 62.9274 36.9686 63.9081 36.9686 65.1137V74.8355C36.9686 76.0408 35.9354 77.0218 34.6653 77.0218C33.3952 77.0218 32.362 76.0411 32.362 74.8355V72.1104H33.1121C34.3549 72.1104 35.3619 71.1541 35.3619 69.9748C35.3621 68.7951 34.3547 67.839 33.1121 67.839ZM41.0663 62.9274H84.0534C85.3233 62.9274 86.3567 63.9081 86.3567 65.1137V74.8355C86.3567 76.0408 85.3235 77.0218 84.0534 77.0218H41.0663C41.3261 76.3387 41.4682 75.6026 41.4682 74.8355V65.1137C41.4682 64.3465 41.3256 63.6104 41.0663 62.9274ZM77.25 81.2929V84.5619C77.25 86.0943 76.4101 87.5209 75.0576 88.2846C74.2848 88.7213 73.6569 89.228 73.1033 89.6751C71.9561 90.6008 71.2637 91.1595 69.6216 91.1595C67.9795 91.1595 67.2869 90.6008 66.14 89.6749C64.8318 88.6191 63.0403 87.173 59.7434 87.173C56.4468 87.173 54.6553 88.6193 53.3474 89.6751C52.2005 90.6008 51.5081 91.1595 49.8663 91.1595C48.2241 91.1595 47.5321 90.6008 46.3851 89.6751C45.0772 88.6193 43.2857 87.173 39.9891 87.173C38.5174 87.173 37.2237 87.453 36.0337 88.0293C35.2111 88.4282 34.2634 88.4013 33.4993 87.9566C32.7765 87.5363 32.362 86.8279 32.362 86.0119V80.9114C33.0816 81.158 33.8571 81.2929 34.665 81.2929H77.25ZM4.49986 42.8909C4.49986 42.1207 5.15996 41.4941 5.97106 41.4941H52.6477V44.4715H9.88632C8.64345 44.4715 7.63652 45.4278 7.63652 46.6071V100.877C7.63652 102.057 8.64345 103.013 9.88632 103.013H97.5934C98.8362 103.013 99.8432 102.057 99.8432 100.877V46.6068C99.8432 45.4273 98.8362 44.4713 97.5934 44.4713H57.1473V41.4939H101.509C102.32 41.4939 102.98 42.1202 102.98 42.8906V105.99H4.49986V42.8909ZM9.8449 115.729C6.89751 115.729 4.49986 113.452 4.49986 110.654V110.261H26.7425V111.394C26.7425 112.974 27.1953 114.455 27.9812 115.729H9.8449ZM125.157 115.729H35.808C33.2903 115.729 31.2421 113.784 31.2421 111.394V110.261H129.722V111.394C129.722 113.784 127.674 115.729 125.157 115.729Z" fill="#FA58B6"/>
</svg>
