<svg width="526" height="600" viewBox="0 0 526 600" fill="none" xmlns="http://www.w3.org/2000/svg">
<g clip-path="url(#clip0_33_2)">
<path fill-rule="evenodd" clip-rule="evenodd" d="M274.645 49.8404C335.957 53.3637 399.926 66.8677 437.83 121.445C475.45 175.613 472.703 248.976 459.662 316.242C446.438 384.452 421.77 452.974 367.205 485.735C310.366 519.861 240.774 515.566 183.708 481.926C128.756 449.532 99.4536 385.466 82.7095 318.026C64.5392 244.842 46.9367 160.511 89.2326 101.412C131.344 42.5708 207.767 45.9972 274.645 49.8404Z" fill="#313170"/>
<path d="M273.23 562.874L273.9 547.82C273.969 547.783 274.039 547.746 274.109 547.71C281.283 543.946 289.505 550.76 287.213 558.53C285.057 565.842 283.609 573.724 279.662 580.123C277.331 583.841 274.192 586.985 270.48 589.325C266.768 591.664 262.577 593.138 258.217 593.637L249.103 599.218C247.852 592.246 248.128 585.085 249.911 578.23C251.694 571.375 254.942 564.988 259.432 559.509C261.981 556.46 264.903 553.744 268.131 551.426C270.314 557.181 273.23 562.874 273.23 562.874Z" fill="white"/>
<path d="M354.834 410.109C372.382 392.013 397.811 381.635 424.601 381.635L425.634 381.637C443.28 381.644 460.612 376.964 475.855 368.076L477.442 367.151L476.164 365.835C469.247 358.679 463.472 350.503 459.04 341.592C462.188 344.526 465.942 346.733 470.037 348.056C474.132 349.379 478.468 349.785 482.737 349.247C487.245 348.71 491.572 347.159 495.395 344.71C499.217 342.262 502.436 338.98 504.809 335.11C514.173 319.918 525.334 298.362 525.334 281.941C525.319 268.061 522.413 254.336 516.8 241.641C511.187 228.946 502.991 217.56 492.733 208.208C486.239 202.353 481.052 195.195 477.511 187.201C473.969 179.207 472.152 170.556 472.177 161.812L472.183 160.568C472.184 149.057 470.778 137.588 467.994 126.419L467.711 125.291L466.55 125.331C459.067 125.586 451.579 124.959 444.241 123.463C451.124 122.618 457.856 120.828 464.249 118.141L465.497 117.636L465.074 116.357C435.866 98.2737 369.936 107.638 331.669 20.0884C300.639 -50.9026 191.155 83.1072 191.155 160.568C191.155 168.472 198.978 178.917 193.122 184.141C129.819 240.614 173.497 276.878 187.268 313.368C190.535 322.025 183.451 331.53 183.451 340.896C183.451 342.486 183.491 344.126 183.571 345.772L183.693 348.303L185.804 346.899C189.98 344.164 193.85 340.989 197.349 337.43C193.719 345.783 192.008 354.845 192.343 363.947C192.677 373.049 195.048 381.961 199.282 390.026C205.916 402.546 212.334 411.51 218.358 416.666C237.654 433.178 262.529 441.696 287.897 440.477C313.265 439.258 337.209 428.395 354.834 410.109Z" fill="white"/>
<path d="M248.851 598.474C248.419 598.474 248.002 598.318 247.677 598.035C247.351 597.752 247.138 597.361 247.078 596.934C247.001 596.399 239.54 542.589 246.241 471.073C252.43 405.026 272.304 309.895 331.839 231.766C331.981 231.578 332.16 231.421 332.363 231.302C332.567 231.183 332.792 231.106 333.025 231.074C333.259 231.042 333.496 231.057 333.724 231.117C333.952 231.177 334.166 231.282 334.353 231.425C334.541 231.568 334.698 231.746 334.817 231.95C334.935 232.153 335.012 232.378 335.043 232.612C335.075 232.846 335.06 233.083 334.999 233.311C334.939 233.539 334.834 233.752 334.691 233.939C275.67 311.394 255.957 405.827 249.812 471.407C243.149 542.507 250.552 595.898 250.628 596.429C250.664 596.683 250.645 596.942 250.572 597.189C250.499 597.435 250.374 597.663 250.206 597.857C250.037 598.051 249.829 598.206 249.595 598.313C249.361 598.419 249.107 598.474 248.851 598.474Z" fill="#3F3D56"/>
<path d="M297.435 341.971C297.056 341.971 296.687 341.852 296.38 341.629C296.074 341.407 295.845 341.093 295.728 340.733C295.611 340.373 295.611 339.985 295.728 339.624C295.845 339.264 296.073 338.95 296.379 338.728C296.595 338.571 318.375 322.878 350.935 310.957C381.034 299.938 426.805 289.948 473.925 304.944C474.15 305.015 474.358 305.13 474.538 305.282C474.719 305.434 474.867 305.619 474.976 305.829C475.084 306.038 475.15 306.266 475.17 306.501C475.19 306.736 475.164 306.973 475.092 307.197C475.021 307.422 474.906 307.63 474.754 307.81C474.602 307.99 474.416 308.138 474.206 308.247C473.997 308.355 473.768 308.42 473.533 308.44C473.298 308.46 473.062 308.433 472.838 308.361C426.683 293.673 381.742 303.497 352.168 314.324C320.072 326.075 298.699 341.474 298.487 341.628C298.181 341.851 297.813 341.971 297.435 341.971Z" fill="#3F3D56"/>
<path d="M215.372 137.592C215.344 137.215 215.437 136.838 215.637 136.516C215.836 136.194 216.133 135.944 216.484 135.801C216.835 135.659 217.222 135.63 217.589 135.721C217.957 135.812 218.287 136.017 218.531 136.306C218.703 136.51 235.924 157.102 250.159 188.718C263.318 217.944 276.578 262.875 265.014 310.95C264.903 311.412 264.612 311.812 264.207 312.06C263.801 312.308 263.314 312.385 262.851 312.274C262.389 312.163 261.99 311.873 261.742 311.467C261.493 311.062 261.416 310.574 261.528 310.112C272.854 263.021 259.818 218.906 246.889 190.19C232.857 159.026 215.958 138.818 215.789 138.618C215.545 138.329 215.399 137.97 215.372 137.592Z" fill="#3F3D56"/>
<path d="M217.798 230.042C216.286 242.246 207.828 252.309 195.529 252.309C189.623 252.309 183.959 249.963 179.783 245.787C175.607 241.611 173.261 235.948 173.261 230.042C173.261 217.744 183.283 208.911 195.529 207.774C208.523 206.568 219.741 214.372 217.798 230.042Z" fill="#2F2E41"/>
<path d="M185.215 588.667L176.735 588.666L172.701 555.957L185.217 555.958L185.215 588.667Z" fill="#FFB6B6"/>
<path d="M185.513 597.512L159.436 597.511V597.182C159.436 594.49 160.505 591.909 162.409 590.005C164.312 588.102 166.894 587.032 169.586 587.032H169.587L174.35 583.419L183.237 587.033L185.514 587.033L185.513 597.512Z" fill="#2F2E41"/>
<path d="M218.619 588.667L210.139 588.666L206.105 555.957L218.62 555.958L218.619 588.667Z" fill="#FFB6B6"/>
<path d="M218.917 597.512L192.839 597.511V597.182C192.839 594.49 193.909 591.909 195.812 590.005C197.716 588.102 200.297 587.032 202.989 587.032H202.99L207.753 583.419L216.641 587.033L218.917 587.033L218.917 597.512Z" fill="#2F2E41"/>
<path d="M156.033 383.81L150.037 404.364L157.101 491.418C157.101 491.418 153.463 496.861 156.033 496.861C158.602 496.861 161.897 498.068 159.822 501.319C157.746 504.569 164.841 516.239 164.841 516.239L174.876 578.224L187.663 578.035C187.663 578.035 194.163 574.414 190.515 570.752C186.867 567.09 184.297 567.09 187.723 563.664C191.149 560.238 191.149 561.27 191.149 558.613C191.149 555.956 194.582 523.485 186.442 511.03L188.894 460.246L194.671 510.058L206.566 576.511L218.884 576.409C218.884 576.409 224.574 570.926 224.563 566.867C224.553 562.808 221.048 562.471 223.657 560.07C226.266 557.669 226.266 520.788 218.557 500.287C218.557 500.287 214.197 488.833 218.567 484.908C222.937 480.983 218.572 476.492 218.572 476.492C218.572 476.492 211.65 473.99 218.579 466.781C225.507 459.572 218.616 408.586 218.616 408.586C218.616 408.586 226.19 388.005 218.519 379.912C210.849 371.819 156.033 383.81 156.033 383.81Z" fill="#2F2E41"/>
<path d="M262.816 419.224L252.119 393.374L243.691 398.056L248.781 424.352C248.271 426.018 248.236 427.793 248.68 429.477C249.124 431.162 250.029 432.689 251.293 433.888C252.558 435.087 254.131 435.909 255.838 436.262C257.544 436.615 259.314 436.486 260.951 435.888C262.587 435.29 264.025 434.247 265.101 432.878C266.177 431.508 266.85 429.865 267.044 428.133C267.238 426.402 266.945 424.651 266.198 423.077C265.451 421.503 264.28 420.169 262.816 419.224Z" fill="#FFB6B6"/>
<path d="M83.3168 214.813L99.5929 237.567L106.741 231.097L95.825 206.638C95.944 204.9 95.5758 203.163 94.7618 201.623C93.9477 200.083 92.7202 198.8 91.2171 197.919C89.7139 197.038 87.9949 196.594 86.2532 196.636C84.5114 196.679 82.8161 197.206 81.3577 198.159C79.8993 199.112 78.7356 200.453 77.9976 202.031C77.2596 203.61 76.9765 205.362 77.18 207.093C77.3836 208.823 78.0657 210.462 79.1498 211.826C80.2339 213.19 81.677 214.224 83.3168 214.813Z" fill="#FFB6B6"/>
<path d="M154.418 385.917C143.861 402.291 196.927 423.07 217.288 414.728C220.854 413.267 233.118 408.442 224.735 401.753C216.352 395.064 225.707 394.123 225.928 389.768C226.076 386.857 223.822 380.47 226.174 380.744C228.526 381.018 231.278 376.992 226.156 375.259C221.034 373.527 226.101 371.947 226.056 370.302C225.567 352.355 211.796 323.808 211.796 323.808L236.609 387.234C236.609 387.234 236.426 398.208 239.59 394.854C242.755 391.501 242.524 402.354 242.524 402.354C242.524 402.354 247.23 405.638 244.524 407.465C241.818 409.292 247.437 414.911 247.437 414.911L260.547 413.974C260.547 413.974 260.342 404.236 258.103 402.082C255.865 399.929 256.964 396.54 256.964 396.54C256.964 396.54 251.136 391.381 255.044 387.192C260.069 381.805 241.747 290.815 235.424 291.716C234.53 287.366 232.451 283.348 229.416 280.105C226.38 276.863 222.508 274.523 218.226 273.344L204.066 269.445L201.552 259.47H181.614L178.141 266.025L162.983 272.865C160.127 268.836 157.994 264.591 146.302 263.215C146.302 263.215 114.798 234.553 116.336 232.314C117.874 230.076 112.991 224.837 112.991 224.837C112.991 224.837 108.82 223.472 111.173 222.743C113.527 222.014 109.078 220.329 109.078 220.329C109.078 220.329 104.958 219.247 106.901 217.821C108.845 216.396 100.417 215.459 100.417 215.459L89.4818 224.381L91.6919 228.128C91.6919 228.128 90.3444 233.231 92.103 231.368C93.8616 229.505 94.1927 234.911 94.1927 234.911C94.1927 234.911 95.0908 240.831 100.417 242.615C105.743 244.398 109.781 261.343 109.781 261.343C122.341 277.673 137.164 290.412 154.73 298.798C147.884 306.656 154.418 385.917 154.418 385.917Z" fill="#6C63FF"/>
<path d="M193.068 253.632C182.162 253.632 173.321 244.791 173.321 233.886C173.321 222.98 182.162 214.14 193.068 214.14C203.974 214.14 212.815 222.98 212.815 233.886C212.815 244.791 203.974 253.632 193.068 253.632Z" fill="#FFB6B6"/>
<path d="M213.516 236.037C212.891 240.328 209.233 246.315 210.09 246.315C210.946 246.315 217.036 228.626 210.946 227.473C206.529 226.636 205.542 227.37 201.414 225.58L201.996 226.128C199.264 228.115 195.461 226.89 192.343 225.597C189.217 224.312 185.423 223.087 182.682 225.066C180.96 226.308 180.232 228.466 179.162 230.299C178.091 232.14 176.113 233.879 174.074 233.314C172.438 232.86 171.496 231.027 171.505 229.331C171.513 227.635 173.722 226.022 172.978 224.501C170.774 219.992 172.756 216.919 177.56 214.797C179.307 214.531 181.055 214.26 182.802 213.983C181.886 212.715 180.776 211.6 179.513 210.677C180.047 209.309 180.97 208.127 182.168 207.277C183.564 206.447 185.294 206.506 186.913 206.592C190.527 206.781 194.139 206.969 197.748 207.157C200.42 207.294 203.186 207.457 205.576 208.682C208.557 210.215 210.509 213.204 211.931 216.244C215.117 223.079 214.612 228.577 213.516 236.037Z" fill="#2F2E41"/>
<path d="M295.663 599.737L101.452 600C101.182 600 100.923 599.893 100.731 599.701C100.54 599.51 100.433 599.251 100.433 598.98C100.433 598.71 100.54 598.451 100.731 598.26C100.923 598.068 101.182 597.961 101.452 597.961L295.663 597.698C295.933 597.698 296.193 597.805 296.384 597.996C296.575 598.188 296.682 598.447 296.682 598.717C296.682 598.988 296.575 599.247 296.384 599.438C296.193 599.629 295.933 599.737 295.663 599.737Z" fill="white"/>
<path d="M365.904 510.844C365.546 508.384 368.123 505.972 371.66 505.457C375.197 504.943 378.355 506.52 378.713 508.981C379.071 511.441 376.494 513.853 372.957 514.368C369.419 514.882 366.262 513.305 365.904 510.844Z" fill="#E6E6E6"/>
<path d="M323.789 506.735C323.431 504.275 326.008 501.863 329.545 501.348C333.082 500.834 336.24 502.411 336.598 504.872C336.956 507.332 334.379 509.744 330.842 510.259C327.304 510.773 324.147 509.196 323.789 506.735Z" fill="#6C63FF"/>
<path d="M377.436 476.75C377.078 474.29 379.655 471.878 383.193 471.363C386.73 470.849 389.888 472.426 390.246 474.887C390.604 477.347 388.027 479.759 384.489 480.274C380.952 480.788 377.794 479.211 377.436 476.75Z" fill="#FA58B6"/>
<path d="M395.736 462.785C395.719 460.526 396.98 458.685 398.551 458.673C400.123 458.661 401.41 460.483 401.427 462.742C401.445 465.001 400.184 466.842 398.613 466.854C397.041 466.866 395.754 465.044 395.736 462.785Z" fill="#E6E6E6"/>
<path d="M401.942 436.773C401.925 434.514 403.185 432.673 404.757 432.661C406.328 432.649 407.616 434.471 407.633 436.73C407.65 438.989 406.39 440.83 404.819 440.842C403.247 440.854 401.959 439.032 401.942 436.773Z" fill="#1A1A40"/>
<path d="M353.683 482.552C353.666 480.293 354.926 478.452 356.497 478.44C358.069 478.429 359.357 480.25 359.374 482.509C359.391 484.768 358.131 486.609 356.559 486.621C354.988 486.633 353.7 484.811 353.683 482.552Z" fill="#E6E6E6"/>
<path d="M374.035 492.713C374.018 490.454 375.278 488.614 376.849 488.602C378.421 488.59 379.708 490.411 379.726 492.67C379.743 494.929 378.483 496.77 376.911 496.782C375.34 496.794 374.052 494.972 374.035 492.713Z" fill="#FA58B6"/>
<path d="M345.704 511.493C345.687 509.234 346.947 507.393 348.519 507.381C350.09 507.37 351.378 509.191 351.395 511.45C351.412 513.709 350.152 515.55 348.581 515.562C347.009 515.574 345.721 513.753 345.704 511.493Z" fill="#6C63FF"/>
<path d="M42.1488 378.95C41.7908 376.489 44.368 374.078 47.9051 373.563C51.4423 373.048 54.5999 374.626 54.958 377.086C55.316 379.547 52.7387 381.959 49.2016 382.474C45.6645 382.988 42.5068 381.411 42.1488 378.95Z" fill="#E6E6E6"/>
<path d="M0.0333533 374.841C-0.324668 372.38 2.25263 369.968 5.78987 369.454C9.32711 368.939 12.4848 370.517 12.8428 372.977C13.2009 375.438 10.6236 377.85 7.08637 378.364C3.54914 378.879 0.391375 377.301 0.0333533 374.841Z" fill="#6C63FF"/>
<path d="M53.6819 344.856C53.3239 342.396 55.9011 339.984 59.4383 339.469C62.9755 338.954 66.1332 340.532 66.4912 342.993C66.8492 345.453 64.272 347.865 60.7348 348.38C57.1976 348.894 54.0399 347.317 53.6819 344.856Z" fill="#FA58B6"/>
<path d="M71.9809 330.891C71.9638 328.632 73.224 326.791 74.7955 326.779C76.367 326.767 77.6549 328.589 77.6719 330.848C77.689 333.107 76.4289 334.947 74.8574 334.959C73.2858 334.971 71.998 333.15 71.9809 330.891Z" fill="#E6E6E6"/>
<path d="M78.187 304.879C78.1699 302.62 79.43 300.779 81.0015 300.767C82.573 300.755 83.8608 302.577 83.8779 304.836C83.895 307.095 82.6349 308.935 81.0634 308.947C79.4919 308.959 78.2041 307.138 78.187 304.879Z" fill="#6C63FF"/>
<path d="M29.9278 350.658C29.9107 348.399 31.1707 346.558 32.742 346.546C34.3133 346.534 35.6009 348.356 35.618 350.615C35.6351 352.874 34.3751 354.715 32.8038 354.727C31.2325 354.739 29.9449 352.917 29.9278 350.658Z" fill="#E6E6E6"/>
<path d="M50.2797 360.819C50.2626 358.56 51.5228 356.719 53.0942 356.707C54.6657 356.695 55.9535 358.517 55.9706 360.776C55.9877 363.035 54.7276 364.876 53.1561 364.888C51.5846 364.899 50.2968 363.078 50.2797 360.819Z" fill="#FA58B6"/>
<path d="M21.9485 379.599C21.9315 377.34 23.1917 375.499 24.7634 375.487C26.335 375.476 27.623 377.297 27.6401 379.556C27.6572 381.815 26.3969 383.656 24.8252 383.668C23.2535 383.68 21.9656 381.858 21.9485 379.599Z" fill="#6C63FF"/>
<path d="M198.887 134.86C198.529 132.399 201.106 129.988 204.644 129.473C208.181 128.958 211.339 130.536 211.697 132.996C212.055 135.457 209.478 137.869 205.94 138.384C202.403 138.898 199.245 137.321 198.887 134.86Z" fill="white"/>
<path d="M156.772 130.751C156.414 128.29 158.991 125.878 162.529 125.364C166.066 124.849 169.224 126.426 169.582 128.887C169.94 131.348 167.362 133.759 163.825 134.274C160.288 134.789 157.13 133.211 156.772 130.751Z" fill="#1A1A40"/>
<path d="M210.419 100.766C210.061 98.3054 212.639 95.8936 216.176 95.3789C219.713 94.8643 222.871 96.4418 223.229 98.9024C223.587 101.363 221.01 103.775 217.473 104.29C213.935 104.804 210.778 103.227 210.419 100.766Z" fill="#FA58B6"/>
<path d="M228.72 86.8007C228.703 84.5417 229.963 82.7009 231.534 82.689C233.106 82.6771 234.394 84.4987 234.411 86.7576C234.428 89.0166 233.168 90.8574 231.596 90.8693C230.025 90.8812 228.737 89.0596 228.72 86.8007Z" fill="#E6E6E6"/>
<path d="M234.926 60.7887C234.909 58.5298 236.169 56.6889 237.74 56.6771C239.312 56.6652 240.599 58.4868 240.617 60.7457C240.634 63.0046 239.374 64.8455 237.802 64.8574C236.231 64.8692 234.943 63.0476 234.926 60.7887Z" fill="#1A1A40"/>
<path d="M186.666 106.568C186.649 104.309 187.909 102.468 189.481 102.456C191.052 102.444 192.34 104.266 192.357 106.525C192.374 108.784 191.114 110.625 189.543 110.637C187.971 110.648 186.683 108.827 186.666 106.568Z" fill="#E6E6E6"/>
<path d="M207.018 116.729C207.001 114.47 208.261 112.629 209.833 112.617C211.404 112.605 212.692 114.427 212.709 116.686C212.726 118.945 211.466 120.786 209.894 120.798C208.323 120.809 207.035 118.988 207.018 116.729Z" fill="#FA58B6"/>
<path d="M178.688 135.509C178.671 133.25 179.931 131.409 181.502 131.397C183.074 131.385 184.361 133.207 184.378 135.466C184.396 137.725 183.135 139.566 181.564 139.578C179.992 139.59 178.705 137.768 178.688 135.509Z" fill="#1A1A40"/>
</g>
<defs>
<clipPath id="clip0_33_2">
<rect width="525.334" height="600" fill="white" transform="matrix(-1 0 0 1 525.334 0)"/>
</clipPath>
</defs>
</svg>
